Coordinates
version=1
nRows=26
nColumns=24
inDegrees=yes

Units are S.I. units (second, meters, Newtons, ...)
Angles are in degrees.

endheader
time	pelvis_tilt	pelvis_list	pelvis_rotation	pelvis_tx	pelvis_ty	pelvis_tz	hip_flexion_r	hip_adduction_r	hip_rotation_r	knee_angle_r	ankle_angle_r	subtalar_angle_r	mtp_angle_r	hip_flexion_l	hip_adduction_l	hip_rotation_l	knee_angle_l	ankle_angle_l	subtalar_angle_l	mtp_angle_l	lumbar_extension	lumbar_bending	lumbar_rotation
      0.85800000	      2.83778979	     -4.92405946	     -4.64123240	     -0.38946234	      1.01708966	      0.31115600	      8.52761649	      8.53901664	      1.28953728	    -17.73109682	     -2.20619732	    -17.25456034	     -2.32871892	     11.24142058	    -10.63151343	     -8.75438194	    -69.89037763	      2.58306355	    -15.28485751	    -12.40287461	    -14.89859786	      6.55040744	      5.35326660
      0.86216667	      2.91041827	     -4.78705821	     -4.68341179	     -0.38444958	      1.01811822	      0.31138653	      8.01103641	      8.37082096	      1.34509439	    -17.48730451	     -2.10749348	    -17.15801613	     -2.34433810	     11.76010843	    -10.48882080	     -8.71186623	    -69.64404371	      2.88011060	    -15.21425991	    -12.46978629	    -14.99398660	      6.33734263	      5.55166400
      0.86633333	      3.01731497	     -4.67058018	     -4.75041215	     -0.37931938	      1.01924280	      0.31166284	      7.42147988	      8.22107850	      1.42520801	    -17.19278071	     -1.95668957	    -16.99169578	     -2.38003911	     12.19352295	    -10.37964490	     -8.72636243	    -69.29572125	      3.06862928	    -15.18199633	    -12.63542863	    -15.10596045	      6.15796914	      5.79766495
      0.87050000	      3.11666183	     -4.54785413	     -4.81824005	     -0.37421974	      1.02032416	      0.31192927	      6.84440886	      8.06257855	      1.49426984	    -16.89521370	     -1.86163873	    -16.87870524	     -2.42000321	     12.62295822	    -10.26507543	     -8.75558812	    -68.89661960	      3.30064593	    -15.10792453	    -12.81988986	    -15.21243971	      5.96654319	      5.95747360
      0.87466667	      3.18676056	     -4.42926768	     -4.87672994	     -0.36911704	      1.02133181	      0.31219824	      6.29868742	      7.90894011	      1.54147444	    -16.59846548	     -1.75500157	    -16.76553306	     -2.44881897	     13.07487874	    -10.15944746	     -8.78091966	    -68.44426685	      3.50183773	    -15.00360239	    -12.95720987	    -15.28115834	      5.76960526	      6.10405570
      0.87883333	      3.26713629	     -4.30815714	     -4.94409455	     -0.36400293	      1.02234966	      0.31244653	      5.73797683	      7.74600772	      1.58596096	    -16.29123272	     -1.66105890	    -16.62601565	     -2.47561306	     13.49101848	    -10.04916030	     -8.83290227	    -67.92422560	      3.69876427	    -14.90925766	    -13.09345506	    -15.36173135	      5.57668239	      6.25407763
      0.88300000	      3.35941581	     -4.19341136	     -5.01674060	     -0.35889171	      1.02336207	      0.31268679	      5.15995569	      7.58490074	      1.62440529	    -15.97290042	     -1.57236382	    -16.47856570	     -2.49995818	     13.87286092	     -9.94612300	     -8.90117259	    -67.34416628	      3.89128634	    -14.79533895	    -13.22591315	    -15.45661320	      5.39346984	      6.40794415
      0.88716667	      3.36767382	     -4.08465709	     -5.08243556	     -0.35378168	      1.02419874	      0.31291739	      4.67763630	      7.43716030	      1.65274166	    -15.65658666	     -1.55858889	    -16.36654220	     -2.50869174	     14.34379543	     -9.85655310	     -8.96323232	    -66.73333732	      4.07773610	    -14.68091054	    -13.27530977	    -15.45544761	      5.22268288	      6.49274566
      0.89133333	      3.54070806	     -3.95768597	     -5.19105719	     -0.34865442	      1.02531077	      0.31320277	      4.01115714	      7.24951950	      1.70388649	    -15.34156574	     -1.38766098	    -16.13239196	     -2.52669409	     14.57176799	     -9.74715723	     -9.11750732	    -66.00346702	      4.23201385	    -14.57121298	    -13.40467025	    -15.64187692	      5.00814444	      6.72077724
      0.89550000	      3.52393805	     -3.86904736	     -5.25519458	     -0.34349742	      1.02604635	      0.31343052	      3.54875056	      7.12147359	      1.70580831	    -15.01383404	     -1.39336726	    -16.04183947	     -2.53200943	     15.03073121	     -9.68989484	     -9.20708479	    -65.28842019	      4.38553519	    -14.45876171	    -13.43809710	    -15.59288295	      4.86154316	      6.78827536
      0.89966667	      3.71080369	     -3.72872721	     -5.38487138	     -0.33841056	      1.02711921	      0.31376337	      2.87298686	      6.91769560	      1.78820245	    -14.70105567	     -1.21751238	    -15.79304373	     -2.54395805	     15.20006820	     -9.57269907	     -9.40978003	    -64.44302861	      4.52731176	    -14.33184099	    -13.55021907	    -15.81314049	      4.59950958	      7.02872763
      0.90383333	      3.83106386	     -3.61160662	     -5.50795971	     -0.33325629	      1.02805531	      0.31406910	      2.26413549	      6.74249683	      1.84321601	    -14.37599650	     -1.16628328	    -15.65994756	     -2.55735792	     15.42490293	     -9.48770694	     -9.61438478	    -63.55660247	      4.64215903	    -14.23310469	    -13.66611725	    -15.92778859	      4.40925816	      7.20751891
      0.90800000	      3.80898602	     -3.53812733	     -5.58944907	     -0.32811207	      1.02867708	      0.31430557	      1.80947719	      6.62625826	      1.86056619	    -14.04715834	     -1.17024432	    -15.52137959	     -2.56196920	     15.82897578	     -9.45642666	     -9.75842148	    -62.68947035	      4.76098938	    -14.12374544	    -13.71102851	    -15.88870681	      4.28408372	      7.29614077
      0.91216667	      4.02598629	     -3.42899141	     -5.76187768	     -0.32299620	      1.02969801	      0.31472989	      1.09290540	      6.45048265	      1.98105720	    -13.71597754	     -1.04633482	    -15.32018505	     -2.57558480	     15.88420542	     -9.39788914	    -10.06626832	    -61.67826639	      4.82700455	    -14.08051869	    -13.87365470	    -16.13046530	      4.04044372	      7.57817240
      0.91633333	      4.08282690	     -3.32533132	     -5.89123762	     -0.31786892	      1.03038588	      0.31504899	      0.56768978	      6.29273547	      2.04228061	    -13.41963747	     -0.93325273	    -15.16940190	     -2.58399740	     16.13183386	     -9.34144057	    -10.30731701	    -60.67122606	      4.93519982	    -13.98298236	    -13.98240307	    -16.18279153	      3.84712740	      7.72594406
      0.92050000	      4.16720244	     -3.23814135	     -6.03007013	     -0.31274026	      1.03108879	      0.31537980	      0.00578724	      6.14715991	      2.11286556	    -13.10449773	     -0.86921930	    -15.01598087	     -2.59312905	     16.32248155	     -9.30542616	    -10.57868177	    -59.60827525	      4.99809841	    -13.93624508	    -14.10161101	    -16.26733848	      3.66905032	      7.91698302
      0.92466667	      4.24300219	     -3.16043993	     -6.17189855	     -0.30760938	      1.03172402	      0.31571873	     -0.54350748	      6.01144020	      2.18306753	    -12.79801827	     -0.78702091	    -14.87382501	     -2.60168785	     16.50272708	     -9.28516495	    -10.86853721	    -58.50520094	      5.06237849	    -13.89212382	    -14.21722038	    -16.33871784	      3.49475565	      8.08928094
      0.92883333	      4.33445655	     -3.09685029	     -6.30966923	     -0.30248708	      1.03233153	      0.31604869	     -1.11000127	      5.88737705	      2.24519549	    -12.48884966	     -0.71739899	    -14.74355735	     -2.60972181	     16.64802038	     -9.27983671	    -11.17170915	    -57.36018736	      5.11233497	    -13.86576583	    -14.33236032	    -16.43041923	      3.33165706	      8.26021477
      0.93300000	      4.40730449	     -3.05415392	     -6.45718062	     -0.29738168	      1.03287243	      0.31638348	     -1.65896597	      5.78707872	      2.33844212	    -12.17294694	     -0.66517109	    -14.60528802	     -2.61979338	     16.79357868	     -9.30049610	    -11.49149772	    -56.17574438	      5.13604482	    -13.86017778	    -14.48806736	    -16.51124471	      3.21033085	      8.45989923
      0.93716667	      4.42941251	     -2.99755255	     -6.59115840	     -0.29225676	      1.03326910	      0.31667720	     -2.13729743	      5.67483486	      2.39686136	    -11.89241053	     -0.56711779	    -14.49807154	     -2.62625751	     16.98320902	     -9.30199899	    -11.80280987	    -54.95764046	      5.17404122	    -13.87115402	    -14.60028728	    -16.52310590	      3.06686582	      8.58383896
      0.94133333	      4.49549748	     -2.96440171	     -6.72325829	     -0.28715977	      1.03369299	      0.31695460	     -2.67062410	      5.58065847	      2.46717599	    -11.59215346	     -0.50681336	    -14.37928096	     -2.63307411	     17.10252592	     -9.32288589	    -12.12807234	    -53.69236756	      5.19268952	    -13.88544128	    -14.72322990	    -16.59783088	      2.95457668	      8.75155095
      0.94550000	      4.50389272	     -2.94160594	     -6.85205840	     -0.28204301	      1.03397081	      0.31722526	     -3.13522796	      5.50367594	      2.51800562	    -11.30847230	     -0.43479374	    -14.28209061	     -2.63810196	     17.27161743	     -9.36255269	    -12.46453006	    -52.40210330	      5.20554815	    -13.92416119	    -14.83556538	    -16.59797373	      2.85325365	      8.88643581
      0.94966667	      4.51954720	     -2.93151997	     -6.97805864	     -0.27695253	      1.03421540	      0.31744949	     -3.60851040	      5.43597622	      2.59186844	    -11.02220729	     -0.36329334	    -14.17525242	     -2.64168372	     17.41338777	     -9.40422298	    -12.79694865	    -51.06721443	      5.21221545	    -13.96411334	    -14.95580664	    -16.61727108	      2.78138806	      9.03437244
      0.95383333	      4.54171193	     -2.93696578	     -7.09826415	     -0.27186454	      1.03440748	      0.31768571	     -4.08821076	      5.38503230	      2.64910987	    -10.73967256	     -0.29625491	    -14.08313064	     -2.64505662	     17.53127068	     -9.46422288	    -13.14528131	    -49.70105722	      5.21579103	    -14.00589737	    -15.08115624	    -16.64292294	      2.71616775	      9.17055114
      0.95800000	      4.53798082	     -2.95294214	     -7.21286801	     -0.26678187	      1.03451558	      0.31787451	     -4.53621878	      5.34500166	      2.70672102	    -10.46562792	     -0.23008410	    -13.99080006	     -2.64725507	     17.66208309	     -9.53004344	    -13.49484482	    -48.30012727	      5.21239762	    -14.05377814	    -15.20741026	    -16.63985300	      2.67576117	      9.29917576
      0.96216667	      4.48457076	     -2.98400964	     -7.30660251	     -0.26167904	      1.03447924	      0.31801466	     -4.93067576	      5.32616679	      2.72272256	    -10.19319994	     -0.17804968	    -13.90175651	     -2.64761358	     17.84129955	     -9.61169619	    -13.83770903	    -46.88510177	      5.21542636	    -14.09433823	    -15.31073569	    -16.58313861	      2.66602336	      9.39751738
